<svg width="22" height="23" viewBox="0 0 22 23" fill="none" xmlns="http://www.w3.org/2000/svg">
<path d="M21.0903 4.23727C20.8324 3.92783 20.5096 3.67897 20.1448 3.50835C19.7799 3.33772 19.382 3.24952 18.9792 3.25002H4.15852L4.12002 2.92827C4.04123 2.25948 3.71979 1.64285 3.21664 1.19529C2.71348 0.74772 2.0636 0.500329 1.39019 0.500015H1.18669C0.943571 0.500015 0.710413 0.596592 0.538505 0.768501C0.366597 0.940409 0.27002 1.17357 0.27002 1.41668C0.27002 1.6598 0.366597 1.89295 0.538505 2.06486C0.710413 2.23677 0.943571 2.33335 1.18669 2.33335H1.39019C1.61471 2.33338 1.83141 2.41581 1.99919 2.565C2.16698 2.7142 2.27417 2.91979 2.30044 3.14277L3.56177 13.8678C3.69272 14.9832 4.22862 16.0116 5.06777 16.758C5.90691 17.5044 6.99089 17.9167 8.11394 17.9167H17.6867C17.9298 17.9167 18.163 17.8201 18.3349 17.6482C18.5068 17.4763 18.6034 17.2431 18.6034 17C18.6034 16.7569 18.5068 16.5237 18.3349 16.3518C18.163 16.1799 17.9298 16.0834 17.6867 16.0834H8.11394C7.54657 16.0818 6.99359 15.9047 6.53079 15.5765C6.068 15.2483 5.71806 14.7849 5.52894 14.25H16.4556C17.5302 14.2501 18.5707 13.8726 19.3952 13.1834C20.2197 12.4943 20.7759 11.5373 20.9665 10.4798L21.6861 6.4886C21.7579 6.09261 21.7418 5.68566 21.6388 5.2966C21.5359 4.90754 21.3486 4.54589 21.0903 4.23727ZM19.8867 6.16318L19.1662 10.1543C19.0517 10.7896 18.7175 11.3643 18.2219 11.7779C17.7263 12.1916 17.1011 12.4177 16.4556 12.4167H5.23744L4.37485 5.08335H18.9792C19.1138 5.08254 19.247 5.11142 19.3693 5.16792C19.4915 5.22441 19.5998 5.30715 19.6864 5.41024C19.7731 5.51333 19.8359 5.63424 19.8705 5.76437C19.9051 5.89451 19.9107 6.03067 19.8867 6.16318Z" fill="#7F3614"/>
<path d="M6.68694 22.5C7.69946 22.5 8.52028 21.6792 8.52028 20.6667C8.52028 19.6541 7.69946 18.8333 6.68694 18.8333C5.67442 18.8333 4.85361 19.6541 4.85361 20.6667C4.85361 21.6792 5.67442 22.5 6.68694 22.5Z" fill="#7F3614"/>
<path d="M15.8534 22.5C16.8659 22.5 17.6867 21.6792 17.6867 20.6667C17.6867 19.6541 16.8659 18.8333 15.8534 18.8333C14.8408 18.8333 14.02 19.6541 14.02 20.6667C14.02 21.6792 14.8408 22.5 15.8534 22.5Z" fill="#7F3614"/>
</svg>
