<svg width="20" height="18" viewBox="0 0 20 18" fill="none" xmlns="http://www.w3.org/2000/svg">
<path d="M14.5815 0C13.6435 0.0149445 12.726 0.283151 11.9215 0.777534C11.1171 1.27192 10.4543 1.97497 10 2.8157C9.54572 1.97497 8.8829 1.27192 8.07847 0.777534C7.27405 0.283151 6.35651 0.0149445 5.41852 0C3.92324 0.0665449 2.51444 0.736564 1.49991 1.86368C0.485388 2.99079 -0.0524034 4.48338 0.00403263 6.01535C0.00403263 9.89504 3.99076 14.1322 7.33441 17.0051C8.08096 17.6477 9.02486 18 10 18C10.9751 18 11.919 17.6477 12.6656 17.0051C16.0092 14.1322 19.996 9.89504 19.996 6.01535C20.0524 4.48338 19.5146 2.99079 18.5001 1.86368C17.4856 0.736564 16.0768 0.0665449 14.5815 0Z" fill="#DF4E54"/>
</svg>
