<svg width="291" height="10" viewBox="0 0 291 10" fill="none" xmlns="http://www.w3.org/2000/svg">
<path d="M1 9L14.8271 2.05571C16.1585 1.38705 17.7187 1.34696 19.0827 1.94635L33.1223 8.11602C34.4042 8.67934 35.8635 8.67934 37.1454 8.11602L51.327 1.88398C52.6089 1.32066 54.0683 1.32066 55.3502 1.88398L69.5317 8.11602C70.8136 8.67934 72.273 8.67934 73.5549 8.11602L87.7365 1.88398C89.0184 1.32066 90.4777 1.32066 91.7596 1.88398L105.941 8.11602C107.223 8.67934 108.682 8.67934 109.964 8.11602L124.146 1.88398C125.428 1.32066 126.887 1.32066 128.169 1.88398L142.351 8.11602C143.633 8.67934 145.092 8.67934 146.374 8.11602L160.555 1.88398C161.837 1.32066 163.297 1.32066 164.579 1.88398L178.76 8.11602C180.042 8.67934 181.501 8.67934 182.783 8.11602L196.965 1.88398C198.247 1.32066 199.706 1.32066 200.988 1.88398L215.17 8.11602C216.451 8.67934 217.911 8.67934 219.193 8.11602L233.374 1.88398C234.656 1.32066 236.116 1.32066 237.397 1.88398L251.579 8.11602C252.861 8.67934 254.32 8.67934 255.602 8.11602L269.784 1.88398C271.066 1.32066 272.525 1.32066 273.807 1.88398L290 9" stroke="white" stroke-opacity="0.58"/>
</svg>
