<svg width="15" height="15" viewBox="0 0 15 15" fill="none" xmlns="http://www.w3.org/2000/svg">
<g clip-path="url(#clip0_363_275)">
<path d="M7.5 3.75C7.00555 3.75 6.5222 3.89662 6.11108 4.17133C5.69995 4.44603 5.37952 4.83648 5.1903 5.29329C5.00108 5.75011 4.95157 6.25277 5.04804 6.73773C5.1445 7.22268 5.3826 7.66814 5.73224 8.01777C6.08187 8.3674 6.52733 8.6055 7.01228 8.70196C7.49723 8.79843 7.9999 8.74892 8.45671 8.5597C8.91353 8.37048 9.30398 8.05005 9.57868 7.63893C9.85339 7.2278 10 6.74445 10 6.25C10 5.58696 9.73662 4.95107 9.26777 4.48223C8.79893 4.01339 8.16305 3.75 7.5 3.75ZM7.5 7.5C7.25278 7.5 7.0111 7.42669 6.80554 7.28934C6.59998 7.15199 6.43976 6.95676 6.34515 6.72835C6.25054 6.49995 6.22579 6.24861 6.27402 6.00614C6.32225 5.76366 6.4413 5.54093 6.61612 5.36612C6.79094 5.1913 7.01366 5.07225 7.25614 5.02402C7.49862 4.97579 7.74995 5.00054 7.97836 5.09515C8.20677 5.18976 8.40199 5.34998 8.53934 5.55554C8.6767 5.7611 8.75001 6.00277 8.75001 6.25C8.75001 6.58152 8.61831 6.89946 8.38389 7.13388C8.14947 7.3683 7.83153 7.5 7.5 7.5Z" fill="white"/>
<path d="M7.49995 14.9998C6.97367 15.0025 6.4544 14.879 5.98562 14.6398C5.51684 14.4006 5.1122 14.0525 4.80558 13.6248C2.4237 10.3392 1.21558 7.86916 1.21558 6.28291C1.21558 4.61619 1.87768 3.01773 3.05623 1.83919C4.23478 0.660637 5.83323 -0.00146484 7.49995 -0.00146484C9.16668 -0.00146484 10.7651 0.660637 11.9437 1.83919C13.1222 3.01773 13.7843 4.61619 13.7843 6.28291C13.7843 7.86916 12.5762 10.3392 10.1943 13.6248C9.88771 14.0525 9.48307 14.4006 9.01429 14.6398C8.54551 14.879 8.02624 15.0025 7.49995 14.9998ZM7.49995 1.36291C6.19521 1.3644 4.94434 1.88336 4.02175 2.80595C3.09916 3.72854 2.58019 4.97942 2.5787 6.28416C2.5787 7.54041 3.76183 9.86353 5.90933 12.8254C6.09164 13.0765 6.33081 13.2809 6.60728 13.4218C6.88374 13.5627 7.18964 13.6362 7.49995 13.6362C7.81027 13.6362 8.11617 13.5627 8.39263 13.4218C8.6691 13.2809 8.90827 13.0765 9.09058 12.8254C11.2381 9.86353 12.4212 7.54041 12.4212 6.28416C12.4197 4.97942 11.9008 3.72854 10.9782 2.80595C10.0556 1.88336 8.80469 1.3644 7.49995 1.36291Z" fill="white"/>
</g>
<defs>
<clipPath id="clip0_363_275">
<rect width="15" height="15" fill="white"/>
</clipPath>
</defs>
</svg>
