<svg width="11" height="11" viewBox="0 0 11 11" fill="none" xmlns="http://www.w3.org/2000/svg">
<g clip-path="url(#clip0_101_9935)">
<path d="M5.50005 0.916671C6.10803 0.918665 6.70958 1.04122 7.26989 1.27724C7.8302 1.51325 8.33813 1.85805 8.7643 2.29167H7.33338C7.21183 2.29167 7.09525 2.33996 7.00929 2.42591C6.92334 2.51187 6.87505 2.62845 6.87505 2.75C6.87505 2.87156 6.92334 2.98814 7.00929 3.07409C7.09525 3.16005 7.21183 3.20834 7.33338 3.20834H9.23226C9.45795 3.20821 9.67437 3.1185 9.83396 2.95891C9.99355 2.79932 10.0833 2.58291 10.0834 2.35721V0.458338C10.0834 0.33678 10.0351 0.220201 9.94914 0.134247C9.86319 0.0482929 9.74661 4.41119e-06 9.62505 4.41119e-06C9.50349 4.41119e-06 9.38691 0.0482929 9.30096 0.134247C9.215 0.220201 9.16672 0.33678 9.16672 0.458338V1.41075C8.40917 0.728503 7.47665 0.270609 6.4736 0.0883477C5.47054 -0.0939134 4.43655 0.00665572 3.48741 0.378793C2.53828 0.75093 1.71148 1.37994 1.0996 2.19539C0.487722 3.01083 0.11493 3.98051 0.0229688 4.99584C0.0170487 5.05966 0.0244885 5.12402 0.0448143 5.18481C0.0651401 5.24561 0.0979061 5.3015 0.141025 5.34893C0.184143 5.39636 0.236669 5.43429 0.295255 5.4603C0.35384 5.48631 0.417202 5.49983 0.481302 5.5C0.593405 5.50143 0.702005 5.46097 0.785845 5.38654C0.869686 5.31211 0.922729 5.20907 0.934594 5.09759C1.03662 3.95668 1.56158 2.89516 2.40634 2.12155C3.2511 1.34795 4.35459 0.91818 5.50005 0.916671Z" fill="#7F3614"/>
<path d="M10.5193 5.5C10.4072 5.49858 10.2986 5.53904 10.2147 5.61347C10.1309 5.6879 10.0778 5.79094 10.066 5.90242C9.9902 6.77474 9.66581 7.60702 9.13127 8.30052C8.59673 8.99402 7.87448 9.51964 7.0502 9.81501C6.22593 10.1104 5.33422 10.1631 4.48088 9.96697C3.62753 9.77081 2.84836 9.334 2.2358 8.70834H3.66672C3.78828 8.70834 3.90486 8.66005 3.99081 8.5741C4.07676 8.48814 4.12505 8.37156 4.12505 8.25001C4.12505 8.12845 4.07676 8.01187 3.99081 7.92592C3.90486 7.83996 3.78828 7.79167 3.66672 7.79167H1.76784C1.65606 7.79161 1.54535 7.81359 1.44206 7.85634C1.33877 7.89909 1.24492 7.96178 1.16587 8.04083C1.08683 8.11987 1.02414 8.21373 0.981384 8.31702C0.938633 8.42031 0.916659 8.53101 0.916719 8.6428V10.5417C0.916719 10.6632 0.965007 10.7798 1.05096 10.8658C1.13692 10.9517 1.25349 11 1.37505 11C1.49661 11 1.61319 10.9517 1.69914 10.8658C1.7851 10.7798 1.83339 10.6632 1.83339 10.5417V9.58926C2.59093 10.2715 3.52345 10.7294 4.52651 10.9117C5.52956 11.0939 6.56356 10.9934 7.51269 10.6212C8.46183 10.2491 9.28863 9.62007 9.9005 8.80463C10.5124 7.98918 10.8852 7.0195 10.9771 6.00417C10.9831 5.94035 10.9756 5.87599 10.9553 5.81519C10.935 5.7544 10.9022 5.69851 10.8591 5.65108C10.816 5.60365 10.7634 5.56572 10.7048 5.53971C10.6463 5.5137 10.5834 5.50018 10.5193 5.5Z" fill="#7F3614"/>
</g>
<defs>
<clipPath id="clip0_101_9935">
<rect width="11" height="11" fill="white"/>
</clipPath>
</defs>
</svg>
