<svg width="20" height="20" viewBox="0 0 20 20" fill="none" xmlns="http://www.w3.org/2000/svg">
<g clip-path="url(#clip0_101_9965)">
<path d="M19.8633 7.32833C19.6928 6.78575 19.3522 6.31242 18.892 5.97836C18.4317 5.64429 17.8761 5.46722 17.3074 5.47333H13.6666L12.5608 2.02667C12.3869 1.48413 12.0451 1.01084 11.5849 0.675054C11.1246 0.339264 10.5696 0.158322 9.99992 0.158322C9.4302 0.158322 8.87519 0.339264 8.41495 0.675054C7.9547 1.01084 7.61298 1.48413 7.43909 2.02667L6.33325 5.47333H2.69242C2.12554 5.47414 1.57341 5.65407 1.1149 5.98742C0.65639 6.32077 0.314951 6.79049 0.139351 7.32949C-0.0362484 7.86849 -0.0370256 8.44919 0.13713 8.98866C0.311287 9.52812 0.651468 9.99875 1.10908 10.3333L4.07242 12.5L2.94575 15.9892C2.76368 16.5303 2.76137 17.1158 2.93918 17.6584C3.11698 18.201 3.46537 18.6716 3.93242 19C4.39146 19.339 4.94775 19.5206 5.51838 19.5177C6.08901 19.5149 6.64346 19.3277 7.09909 18.9842L9.99992 16.8492L12.9016 18.9817C13.3598 19.3187 13.9131 19.5018 14.4819 19.5045C15.0507 19.5073 15.6058 19.3296 16.0672 18.9971C16.5287 18.6645 16.8728 18.1942 17.0502 17.6537C17.2275 17.1132 17.2289 16.5305 17.0541 15.9892L15.9274 12.5L18.8941 10.3333C19.3569 10.003 19.7011 9.53233 19.8757 8.99112C20.0502 8.44991 20.0459 7.86688 19.8633 7.32833ZM17.9108 8.9875L14.4574 11.5117C14.3156 11.6151 14.21 11.7608 14.1559 11.9278C14.1017 12.0948 14.1017 12.2746 14.1558 12.4417L15.4683 16.5C15.5347 16.7058 15.5341 16.9274 15.4666 17.1329C15.3992 17.3384 15.2683 17.5172 15.0928 17.6436C14.9173 17.7701 14.7062 17.8376 14.4899 17.8365C14.2736 17.8354 14.0633 17.7657 13.8891 17.6375L10.4933 15.1375C10.3502 15.0324 10.1774 14.9758 9.99992 14.9758C9.82245 14.9758 9.64962 15.0324 9.50659 15.1375L6.11075 17.6375C5.93665 17.7674 5.7257 17.8385 5.50847 17.8405C5.29125 17.8425 5.07904 17.7752 4.90261 17.6485C4.72618 17.5217 4.59471 17.3421 4.52725 17.1356C4.45979 16.9291 4.45985 16.7065 4.52742 16.5L5.84409 12.4417C5.89818 12.2746 5.89814 12.0948 5.84397 11.9278C5.7898 11.7608 5.68426 11.6151 5.54242 11.5117L2.08908 8.9875C1.91517 8.86016 1.78595 8.68112 1.71987 8.47595C1.65379 8.27078 1.65424 8.04998 1.72115 7.84508C1.78807 7.64018 1.91802 7.46167 2.09245 7.33504C2.26688 7.20842 2.47687 7.14015 2.69242 7.14H6.94242C7.11885 7.13999 7.29072 7.08399 7.43329 6.98006C7.57586 6.87613 7.68177 6.72963 7.73575 6.56167L9.02742 2.53583C9.09372 2.32982 9.22368 2.15016 9.39859 2.02271C9.5735 1.89526 9.78434 1.82659 10.0008 1.82659C10.2172 1.82659 10.428 1.89526 10.6029 2.02271C10.7778 2.15016 10.9078 2.32982 10.9741 2.53583L12.2658 6.56167C12.3197 6.72963 12.4256 6.87613 12.5682 6.98006C12.7108 7.08399 12.8827 7.13999 13.0591 7.14H17.3091C17.5246 7.14015 17.7346 7.20842 17.9091 7.33504C18.0835 7.46167 18.2134 7.64018 18.2804 7.84508C18.3473 8.04998 18.3477 8.27078 18.2816 8.47595C18.2156 8.68112 18.0863 8.86016 17.9124 8.9875H17.9108Z" fill="#7F3614"/>
</g>
<defs>
<clipPath id="clip0_101_9965">
<rect width="20" height="20" fill="white"/>
</clipPath>
</defs>
</svg>
