<svg width="507" height="10" viewBox="0 0 507 10" fill="none" xmlns="http://www.w3.org/2000/svg">
<path d="M1 8.99994L14.8271 2.05565C16.1585 1.38699 17.7187 1.3469 19.0827 1.94629L33.1223 8.11596C34.4042 8.67928 35.8635 8.67928 37.1454 8.11596L51.327 1.88392C52.6089 1.3206 54.0683 1.32059 55.3502 1.88392L69.5317 8.11596C70.8136 8.67928 72.273 8.67928 73.5549 8.11596L87.7365 1.88392C89.0184 1.3206 90.4777 1.3206 91.7596 1.88392L105.941 8.11596C107.223 8.67928 108.682 8.67928 109.964 8.11596L124.146 1.88392C125.428 1.3206 126.887 1.32059 128.169 1.88392L142.351 8.11596C143.633 8.67928 145.092 8.67928 146.374 8.11596L160.555 1.88392C161.837 1.3206 163.297 1.32059 164.579 1.88392L178.76 8.11596C180.042 8.67928 181.501 8.67928 182.783 8.11596L196.965 1.88392C198.247 1.3206 199.706 1.3206 200.988 1.88392L215.17 8.11596C216.451 8.67928 217.911 8.67928 219.193 8.11596L233.374 1.88392C234.656 1.3206 236.116 1.32059 237.397 1.88392L251.579 8.11596C252.861 8.67928 254.32 8.67928 255.602 8.11596L269.784 1.88392C271.066 1.3206 272.525 1.3206 273.807 1.88392L287.846 8.05358C289.21 8.65298 290.771 8.61289 292.102 7.94423L303.827 2.05565C305.158 1.38699 306.719 1.3469 308.083 1.94629L322.122 8.11596C323.404 8.67928 324.864 8.67928 326.145 8.11596L340.327 1.88392C341.609 1.3206 343.068 1.32059 344.35 1.88392L358.532 8.11596C359.814 8.67928 361.273 8.67928 362.555 8.11596L376.736 1.88392C378.018 1.3206 379.478 1.3206 380.76 1.88392L394.941 8.11596C396.223 8.67928 397.682 8.67928 398.964 8.11596L413.146 1.88392C414.428 1.3206 415.887 1.32059 417.169 1.88392L431.351 8.11596C432.633 8.67928 434.092 8.67928 435.374 8.11596L449.555 1.88392C450.837 1.3206 452.297 1.32059 453.578 1.88392L467.76 8.11596C469.042 8.67928 470.501 8.67928 471.783 8.11596L485.965 1.88392C487.247 1.3206 488.706 1.3206 489.988 1.88392L506.181 8.99994" stroke="#FAE2E3"/>
</svg>
