<svg width="17" height="23" viewBox="0 0 17 23" fill="none" xmlns="http://www.w3.org/2000/svg">
<path d="M8.5 11.5C9.5878 11.5 10.6512 11.1774 11.5556 10.5731C12.4601 9.96874 13.1651 9.10975 13.5813 8.10476C13.9976 7.09977 14.1065 5.9939 13.8943 4.92701C13.6821 3.86011 13.1583 2.8801 12.3891 2.11091C11.6199 1.34173 10.6399 0.817902 9.573 0.605683C8.5061 0.393465 7.40023 0.502383 6.39524 0.918665C5.39025 1.33495 4.53126 2.0399 3.92692 2.94437C3.32257 3.84884 3 4.9122 3 6C3.00146 7.45825 3.58139 8.85635 4.61252 9.88748C5.64366 10.9186 7.04176 11.4985 8.5 11.5ZM8.5 2.33334C9.2252 2.33334 9.93411 2.54838 10.5371 2.95128C11.1401 3.35418 11.61 3.92683 11.8876 4.59683C12.1651 5.26683 12.2377 6.00407 12.0962 6.71533C11.9547 7.4266 11.6055 8.07993 11.0927 8.59273C10.5799 9.10552 9.92659 9.45473 9.21533 9.59621C8.50407 9.73769 7.76682 9.66508 7.09683 9.38756C6.42683 9.11004 5.85418 8.64007 5.45128 8.03709C5.04838 7.43411 4.83333 6.7252 4.83333 6C4.83333 5.02754 5.21964 4.09491 5.90727 3.40728C6.59491 2.71964 7.52754 2.33334 8.5 2.33334Z" fill="#7F3614"/>
<path d="M8.5 13.3333C6.31271 13.3357 4.2157 14.2057 2.66905 15.7523C1.1224 17.299 0.252426 19.396 0.25 21.5833C0.25 21.8264 0.346577 22.0596 0.518485 22.2315C0.690394 22.4034 0.923552 22.5 1.16667 22.5C1.40978 22.5 1.64294 22.4034 1.81485 22.2315C1.98676 22.0596 2.08333 21.8264 2.08333 21.5833C2.08333 19.8815 2.75937 18.2494 3.96273 17.046C5.16609 15.8427 6.79819 15.1666 8.5 15.1666C10.2018 15.1666 11.8339 15.8427 13.0373 17.046C14.2406 18.2494 14.9167 19.8815 14.9167 21.5833C14.9167 21.8264 15.0132 22.0596 15.1852 22.2315C15.3571 22.4034 15.5902 22.5 15.8333 22.5C16.0764 22.5 16.3096 22.4034 16.4815 22.2315C16.6534 22.0596 16.75 21.8264 16.75 21.5833C16.7476 19.396 15.8776 17.299 14.331 15.7523C12.7843 14.2057 10.6873 13.3357 8.5 13.3333Z" fill="#7F3614"/>
</svg>
