<svg width="21" height="22" viewBox="0 0 21 22" fill="none" xmlns="http://www.w3.org/2000/svg">
<g clip-path="url(#clip0_101_10112)">
<path d="M19.6788 9.20545L16.4337 5.92675C16.3557 5.84815 16.263 5.78577 16.1608 5.7432C16.0586 5.70063 15.949 5.67871 15.8383 5.67871C15.7276 5.67871 15.618 5.70063 15.5158 5.7432C15.4136 5.78577 15.3209 5.84815 15.2429 5.92675C15.0868 6.08386 14.9991 6.29639 14.9991 6.51792C14.9991 6.73945 15.0868 6.95198 15.2429 7.10909L18.2281 10.1195H1.13029C0.907894 10.1195 0.694608 10.2078 0.537351 10.3651C0.380094 10.5223 0.291748 10.7356 0.291748 10.958H0.291748C0.291748 11.1804 0.380094 11.3937 0.537351 11.5509C0.694608 11.7082 0.907894 11.7965 1.13029 11.7965H18.2785L15.2429 14.8237C15.1643 14.9016 15.102 14.9944 15.0594 15.0966C15.0168 15.1987 14.9949 15.3083 14.9949 15.419C14.9949 15.5297 15.0168 15.6393 15.0594 15.7415C15.102 15.8437 15.1643 15.9365 15.2429 16.0144C15.3209 16.093 15.4136 16.1554 15.5158 16.198C15.618 16.2405 15.7276 16.2624 15.8383 16.2624C15.949 16.2624 16.0586 16.2405 16.1608 16.198C16.263 16.1554 16.3557 16.093 16.4337 16.0144L19.6788 12.7609C20.1499 12.2892 20.4145 11.6498 20.4145 10.9832C20.4145 10.3165 20.1499 9.67713 19.6788 9.20545Z" fill="white"/>
</g>
<defs>
<clipPath id="clip0_101_10112">
<rect width="20.125" height="20.125" fill="white" transform="translate(0.291748 0.895508)"/>
</clipPath>
</defs>
</svg>
