<svg width="27" height="23" viewBox="0 0 27 23" fill="none" xmlns="http://www.w3.org/2000/svg">
<path d="M19.2356 0.5C18.0613 0.518265 16.9127 0.846073 15.9056 1.45032C14.8985 2.05457 14.0687 2.91385 13.5 3.94141C12.9312 2.91385 12.1014 2.05457 11.0944 1.45032C10.0873 0.846073 8.93859 0.518265 7.76429 0.5C5.89231 0.581333 4.12861 1.40025 2.85849 2.77783C1.58838 4.15541 0.915108 5.97968 0.985761 7.8521C0.985761 12.5939 5.97684 17.7727 10.1628 21.284C11.0975 22.0694 12.2792 22.5 13.5 22.5C14.7208 22.5 15.9025 22.0694 16.8371 21.284C21.0231 17.7727 26.0142 12.5939 26.0142 7.8521C26.0848 5.97968 25.4116 4.15541 24.1414 2.77783C22.8713 1.40025 21.1076 0.581333 19.2356 0.5ZM15.497 19.6884C14.938 20.1592 14.2307 20.4173 13.5 20.4173C12.7692 20.4173 12.0619 20.1592 11.5029 19.6884C6.14474 15.1927 3.07146 10.8795 3.07146 7.8521C3.00017 6.53259 3.45353 5.23843 4.33265 4.25186C5.21177 3.2653 6.44533 2.66637 7.76429 2.5857C9.08325 2.66637 10.3168 3.2653 11.1959 4.25186C12.0751 5.23843 12.5284 6.53259 12.4571 7.8521C12.4571 8.12868 12.567 8.39393 12.7626 8.5895C12.9581 8.78508 13.2234 8.89495 13.5 8.89495C13.7765 8.89495 14.0418 8.78508 14.2374 8.5895C14.4329 8.39393 14.5428 8.12868 14.5428 7.8521C14.4715 6.53259 14.9249 5.23843 15.804 4.25186C16.6831 3.2653 17.9167 2.66637 19.2356 2.5857C20.5546 2.66637 21.7882 3.2653 22.6673 4.25186C23.5464 5.23843 23.9998 6.53259 23.9285 7.8521C23.9285 10.8795 20.8552 15.1927 15.497 19.6843V19.6884Z" fill="#7F3614"/>
</svg>
